<svg width="36" height="36" viewBox="0 0 36 36" fill="none" xmlns="http://www.w3.org/2000/svg">
  <g transform="translate(3, 3)" fill="#242528">
    <path d="M13.5 18L10.5 18C10.5 10.545 16.545 4.5 24 4.5L24 7.5C18.195 7.5 13.5 12.195 13.5 18ZM24 13.5L24 10.5C19.86 10.5 16.5 13.86 16.5 18L19.5 18C19.5 15.51 21.51 13.5 24 13.5ZM7.5 3C7.5 1.335 6.165 0 4.5 0C2.835 0 1.5 1.335 1.5 3C1.5 4.665 2.835 6 4.5 6C6.165 6 7.5 4.665 7.5 3ZM14.175 3.75L11.175 3.75C10.815 5.88 8.985 7.5 6.75 7.5L2.25 7.5C1.005 7.5 0 8.505 0 9.75L0 13.5L9 13.5L9 10.11C11.79 9.225 13.875 6.765 14.175 3.75ZM25.5 22.5C27.165 22.5 28.5 21.165 28.5 19.5C28.5 17.835 27.165 16.5 25.5 16.5C23.835 16.5 22.5 17.835 22.5 19.5C22.5 21.165 23.835 22.5 25.5 22.5ZM27.75 24L23.25 24C21.015 24 19.185 22.38 18.825 20.25L15.825 20.25C16.125 23.265 18.21 25.725 21 26.61L21 30L30 30L30 26.25C30 25.005 28.995 24 27.75 24Z" />
  </g>
</svg>
